#!OML:ASF E:\motion texture\Top Level 1\Subject 1\Session 1\male.ASF
:FULLY-SPECIFIED
:DEGREES
530
root -43.575 17.8923 3.18092 112.192 -79.5905 -107.362
lowerback 4.15515 1.54304 9.05247
upperback 1.21361 2.26757 5.69674
thorax -0.94118 1.02186 0.730531
lowerneck -17.5877 0.464814 -1.44939
upperneck 16.9545 -0.288401 5.94728
head 8.17264 0.349955 2.19263
rclavicle 9.34288e-015 1.82882e-014
rhumerus 40.3716 25.518 -68.3349
rradius 70.8589
rwrist 20.2722
rhand -33.0907 -26.2774
rfingers 7.12502
rthumb -6.30176 -56.1637
lclavicle 9.34288e-015 1.82882e-014
lhumerus 26.5806 -4.32502 105.279
lradius 53.155
lwrist 21.5752
lhand -14.0554 16.5748
lfingers 7.12502
lthumb 12.0757 46.2064
rfemur -11.903 3.43156 34.5872
rtibia 24.8606
rfoot -12.375 -4.37657
rtoes 15.4084
lfemur -35.8343 2.82638 -8.20728
ltibia 42.4853
lfoot -8.75879 5.37458
ltoes -18.3824
531
root -43.701 17.8677 3.18082 115.805 -79.345 -110.717
lowerback 4.23711 1.50302 9.01603
upperback 1.38373 2.20062 5.72708
thorax -0.815532 0.992954 0.785224
lowerneck -17.6839 0.536655 -1.33205
upperneck 16.8769 -0.213434 5.92933
head 8.16083 0.391944 2.17589
rclavicle -3.57812e-015 7.95139e-016
rhumerus 40.3716 25.518 -68.3349
rradius 70.8589
rwrist 20.2722
rhand -33.0907 -26.2774
rfingers 7.12502
rthumb -6.30176 -56.1637
lclavicle -3.57812e-015 7.95139e-016
lhumerus 26.5806 -4.32502 105.279
lradius 53.155
lwrist 21.5752
lhand -14.0554 16.5748
lfingers 7.12502
lthumb 12.0757 46.2064
rfemur -11.9058 3.67778 34.6815
rtibia 25.2658
rfoot -12.8856 -4.24801
rtoes 14.8073
lfemur -36.0577 3.13724 -8.17135
ltibia 39.6361
lfoot -8.24267 5.5902
ltoes -18.2133
532
root -43.8211 17.8425 3.1763 119.903 -78.9835 -114.466
lowerback 4.36333 1.51918 8.89106
upperback 1.51333 2.21524 5.77396
thorax -0.75713 1.00155 0.900244
lowerneck -17.9397 0.654346 -1.06019
upperneck 16.9147 -0.0903914 5.75268
head 8.21412 0.454394 2.08959
rclavicle -1.90833e-014 -5.1684e-014
rhumerus 40.3716 25.518 -68.3349
rradius 70.8589
rwrist 20.2722
rhand -33.0907 -26.2774
rfingers 7.12502
rthumb -6.30176 -56.1637
lclavicle -1.90833e-014 -5.1684e-014
lhumerus 26.5806 -4.32502 105.279
lradius 53.155
lwrist 21.5752
lhand -14.0554 16.5748
lfingers 7.12502
lthumb 12.0757 46.2064
rfemur -12.1126 4.19548 34.812
rtibia 25.8305
rfoot -13.293 -4.01839
rtoes 15.0856
lfemur -36.3418 3.45291 -7.95254
ltibia 36.7747
lfoot -7.7577 5.87619
ltoes -18.5732
533
root -43.9457 17.8165 3.17916 123.845 -78.6848 -118.048
lowerback 4.49953 1.50322 8.7687
upperback 1.61328 2.1948 5.75024
thorax -0.734354 0.992864 0.941209
lowerneck -18.1077 0.749829 -0.889455
upperneck 16.8558 -0.0016615 5.74139
head 8.22129 0.508089 2.06924
rclavicle -5.56597e-015 -3.4191e-014
rhumerus 40.3716 25.518 -68.3349
rradius 70.8589
rwrist 20.2722
rhand -33.0907 -26.2774
rfingers 7.12502
rthumb -6.30176 -56.1637
lclavicle -5.56597e-015 -3.4191e-014
lhumerus 26.5806 -4.32502 105.279
lradius 53.155
lwrist 21.5752
lhand -14.0554 16.5748
lfingers 7.12502
lthumb 12.0757 46.2064
rfemur -12.3058 4.52839 34.7583
rtibia 26.3962
rfoot -13.779 -3.75318
rtoes 14.6908
lfemur -36.5123 3.57052 -7.85751
ltibia 33.7843
lfoot -7.26796 6.24269
ltoes -18.7263
534
root -44.0762 17.7894 3.18218 127.622 -78.268 -121.504
lowerback 4.6578 1.47981 8.682
upperback 1.67832 2.17256 5.71405
thorax -0.758454 0.981485 0.948759
lowerneck -17.6 1.0063 -1.03819
upperneck 16.3702 0.317077 6.21372
head 7.95678 0.682723 2.27601
rclavicle -1.39149e-014 2.3059e-014
rhumerus 40.3716 25.518 -68.3349
rradius 70.8589
rwrist 20.2722
rhand -33.0907 -26.2774
rfingers 7.12502
rthumb -6.30176 -56.1637
lclavicle -1.39149e-014 2.3059e-014
lhumerus 26.5806 -4.32502 105.279
lradius 53.155
lwrist 21.5752
lhand -14.0554 16.5748
lfingers 7.12502
lthumb 12.0757 46.2064
rfemur -12.4224 4.88883 34.7452
rtibia 26.954
rfoot -14.2975 -3.41224
rtoes 14.282
lfemur -36.4574 3.47414 -7.55765
ltibia 30.6114
lfoot -6.74006 6.8246
ltoes -18.7028
535
root -44.2127 17.7606 3.19134 130.738 -77.8008 -124.301
lowerback 4.65548 1.46712 8.7442
upperback 1.82917 2.13693 5.69657
thorax -0.597867 0.968997 0.900736
lowerneck -18.3301 0.91579 -0.270633
upperneck 16.8076 0.118855 5.43378
head 8.2424 0.57573 1.87997
rclavicle -8.34896e-015 2.22639e-014
rhumerus 40.3716 25.518 -68.3349
rradius 70.8589
rwrist 20.2722
rhand -33.0907 -26.2774
rfingers 7.12502
rthumb -6.30176 -56.1637
lclavicle -8.34896e-015 2.22639e-014
lhumerus 26.5806 -4.32502 105.279
lradius 53.155
lwrist 21.5752
lhand -14.0554 16.5748
lfingers 7.12502
lthumb 12.0757 46.2064
rfemur -12.4756 5.06939 34.7464
rtibia 27.4501
rfoot -14.8597 -2.96998
rtoes 13.8482
lfemur -36.3086 3.18312 -7.17221
ltibia 27.4556
lfoot -6.1841 7.56266
ltoes -18.8989
536
root -44.3453 17.7341 3.19669 133.992 -77.2884 -127.279
lowerback 4.8026 1.49524 8.68786
upperback 1.9855 2.17054 5.67467
thorax -0.516901 0.988673 0.905951
lowerneck -17.6759 1.15635 -0.858196
upperneck 16.0143 0.477173 6.29147
head 7.84643 0.774323 2.28576
rclavicle -2.5842e-015 -5.24792e-014
rhumerus 40.3716 25.518 -68.3349
rradius 70.8589
rwrist 20.2722
rhand -33.0907 -26.2774
rfingers 7.12502
rthumb -6.30176 -56.1637
lclavicle -2.5842e-015 -5.24792e-014
lhumerus 26.5806 -4.32502 105.279
lradius 53.155
lwrist 21.5752
lhand -14.0554 16.5748
lfingers 7.12502
lthumb 12.0757 46.2064
rfemur -12.5765 5.3756 34.6889
rtibia 28.0765
rfoot -15.4044 -2.53298
rtoes 13.6252
lfemur -36.0472 2.73925 -6.62678
ltibia 24.3517
lfoot -5.77829 8.62752
ltoes -18.6846
537
root -44.4894 17.7029 3.20686 137.189 -76.8126 -130.217
lowerback 4.87878 1.50264 8.57892
upperback 2.11261 2.17033 5.63207
thorax -0.429891 0.99214 0.921387
lowerneck -17.6458 1.22715 -0.685031
upperneck 15.8655 0.564084 6.15531
head 7.78961 0.81067 2.2189
rclavicle 1.70955e-014 1.59028e-014
rhumerus 40.3716 25.518 -68.3349
rradius 70.8589
rwrist 20.2722
rhand -33.0907 -26.2774
rfingers 7.12502
rthumb -6.30176 -56.1637
lclavicle 1.70955e-014 1.59028e-014
lhumerus 26.5806 -4.32502 105.279
lradius 53.155
lwrist 21.5752
lhand -14.0554 16.5748
lfingers 7.12502
lthumb 12.0757 46.2064
rfemur -12.5936 5.49456 34.4749
rtibia 28.6455
rfoot -15.896 -1.77839
rtoes 14.069
lfemur -36.0472 2.73925 -6.62678
ltibia 24.3517
lfoot -5.77829 8.62752
ltoes -18.6846
538
root -44.6348 17.6682 3.21995 139.655 -76.3351 -132.397
lowerback 4.80268 1.4999 8.59514
upperback 2.25808 2.13848 5.6001
thorax -0.234863 0.983059 0.885391
lowerneck -17.3595 1.26543 -0.547906
upperneck 15.5122 0.625963 6.03868
head 7.62164 0.828353 2.15472
rclavicle 9.93923e-016 4.69132e-014
rhumerus 40.3716 25.518 -68.3349
rradius 70.8589
rwrist 20.2722
rhand -33.0907 -26.2774
rfingers 7.12502
rthumb -6.30176 -56.1637
lclavicle 9.93923e-016 4.69132e-014
lhumerus 26.5806 -4.32502 105.279
lradius 53.155
lwrist 21.5752
lhand -14.0554 16.5748
lfingers 7.12502
lthumb 12.0757 46.2064
rfemur -12.7224 5.43744 34.2975
rtibia 29.351
rfoot -16.5625 -1.06517
rtoes 13.9618
lfemur -36.0472 2.73925 -6.62678
ltibia 24.3517
lfoot -5.77829 8.62752
ltoes -18.6846
539
root -44.782 17.635 3.22649 141.836 -75.7685 -134.377
lowerback 4.8328 1.52291 8.56821
upperback 2.44489 2.14564 5.60806
thorax -0.0575417 0.991531 0.910793
lowerneck -17.4427 1.29332 -0.442726
upperneck 15.4614 0.656434 5.94767
head 7.6191 0.841047 2.11103
rclavicle -2.38542e-015 -1.27222e-014
rhumerus 40.3716 25.518 -68.3349
rradius 70.8589
rwrist 20.2722
rhand -33.0907 -26.2774
rfingers 7.12502
rthumb -6.30176 -56.1637
lclavicle -2.38542e-015 -1.27222e-014
lhumerus 26.5806 -4.32502 105.279
lradius 53.155
lwrist 21.5752
lhand -14.0554 16.5748
lfingers 7.12502
lthumb 12.0757 46.2064
rfemur -12.7253 5.60023 34.2243
rtibia 30.0128
rfoot -17.2057 -0.687743
rtoes 13.1356
lfemur -36.0472 2.73925 -6.62678
ltibia 24.3517
lfoot -5.77829 8.62752
ltoes -18.6846
540
root -44.9335 17.6005 3.23819 143.754 -75.2758 -136.108
lowerback 4.95123 1.50952 8.55498
upperback 2.59385 2.12108 5.60299
thorax 0.0304518 0.981419 0.913403
lowerneck -17.6122 1.34346 -0.339569
upperneck 15.5018 0.717435 5.8288
head 7.66063 0.867991 2.06465
rclavicle 3.97569e-015 3.57812e-014
rhumerus 40.3716 25.518 -68.3349
rradius 70.8589
rwrist 20.2722
rhand -33.0907 -26.2774
rfingers 7.12502
rthumb -6.30176 -56.1637
lclavicle 3.97569e-015 3.57812e-014
lhumerus 26.5806 -4.32502 105.279
lradius 53.155
lwrist 21.5752
lhand -14.0554 16.5748
lfingers 7.12502
lthumb 12.0757 46.2064
rfemur -12.7359 5.52958 34.0663
rtibia 30.7463
rfoot -17.79 -0.107566
rtoes 12.2194
lfemur -36.0472 2.73925 -6.62678
ltibia 24.3517
lfoot -5.77829 8.62752
ltoes -18.6846
541
root -45.0915 17.563 3.24856 145.402 -74.8013 -137.526
lowerback 4.7667 1.52045 8.52109
upperback 2.82774 2.07834 5.624
thorax 0.37415 0.969895 0.965289
lowerneck -17.557 1.3327 -0.333889
upperneck 15.2885 0.731339 5.74395
head 7.58024 0.863841 2.03303
rclavicle -2.32578e-014 -2.3059e-014
rhumerus 40.3716 25.518 -68.3349
rradius 70.8589
rwrist 20.2722
rhand -33.0907 -26.2774
rfingers 7.12502
rthumb -6.30176 -56.1637
lclavicle -2.32578e-014 -2.3059e-014
lhumerus 26.5806 -4.32502 105.279
lradius 53.155
lwrist 21.5752
lhand -14.0554 16.5748
lfingers 7.12502
lthumb 12.0757 46.2064
rfemur -12.7919 5.42191 33.9128
rtibia 31.4995
rfoot -18.3797 0.492392
rtoes 11.8871
lfemur -36.0472 2.73925 -6.62678
ltibia 24.3517
lfoot -5.77829 8.62752
ltoes -18.6846
542
root -45.2538 17.527 3.26282 146.289 -74.4223 -138.192
lowerback 4.74259 1.4591 8.63359
upperback 2.94547 1.97713 5.65777
thorax 0.510156 0.922573 0.945659
lowerneck -17.608 1.38819 -0.326181
upperneck 15.3225 0.802804 5.73931
head 7.59782 0.898841 2.03958
rclavicle -1.88845e-014 -3.65764e-014
rhumerus 40.3716 25.518 -68.3349
rradius 70.8589
rwrist 20.2722
rhand -33.0907 -26.2774
rfingers 7.12502
rthumb -6.30176 -56.1637
lclavicle -1.88845e-014 -3.65764e-014
lhumerus 26.5806 -4.32502 105.279
lradius 53.155
lwrist 21.5752
lhand -14.0554 16.5748
lfingers 7.12502
lthumb 12.0757 46.2064
rfemur -12.7922 5.09908 33.8233
rtibia 32.2159
rfoot -18.9154 1.09092
rtoes 11.4216
lfemur -36.0472 2.73925 -6.62678
ltibia 24.3517
lfoot -5.77829 8.62752
ltoes -18.6846
543
root -45.4127 17.4906 3.27134 147.162 -74.0992 -138.879
lowerback 4.76014 1.42459 8.57398
upperback 3.06083 1.91148 5.72033
thorax 0.613752 0.889892 1.04755
lowerneck -17.5699 1.3709 -0.442137
upperneck 15.2914 0.7923 5.83433
head 7.58016 0.894873 2.08778
rclavicle 2.18663e-015 -9.54166e-014
rhumerus 40.3716 25.518 -68.3349
rradius 70.8589
rwrist 20.2722
rhand -33.0907 -26.2774
rfingers 7.12502
rthumb -6.30176 -56.1637
lclavicle 2.18663e-015 -9.54166e-014
lhumerus 26.5806 -4.32502 105.279
lradius 53.155
lwrist 21.5752
lhand -14.0554 16.5748
lfingers 7.12502
lthumb 12.0757 46.2064
rfemur -12.8398 4.8369 33.7151
rtibia 33.0359
rfoot -19.4182 1.48281
rtoes 10.4998
lfemur -36.0472 2.73925 -6.62678
ltibia 24.3517
lfoot -5.77829 8.62752
ltoes -18.6846
544
root -45.5819 17.4577 3.28487 148.127 -73.6743 -139.844
lowerback 4.90488 1.43165 8.55591
upperback 3.26747 1.90563 5.7712
thorax 0.746758 0.887994 1.11107
lowerneck -17.7107 1.29054 -0.347883
upperneck 15.312 0.70088 5.61101
head 7.61562 0.838331 1.99025
rclavicle 5.1684e-015 6.67916e-014
rhumerus 40.3716 25.518 -68.3349
rradius 70.8589
rwrist 20.2722
rhand -33.0907 -26.2774
rfingers 7.12502
rthumb -6.30176 -56.1637
lclavicle 5.1684e-015 6.67916e-014
lhumerus 26.5806 -4.32502 105.279
lradius 53.155
lwrist 21.5752
lhand -14.0554 16.5748
lfingers 7.12502
lthumb 12.0757 46.2064
rfemur -12.6747 4.56302 33.5572
rtibia 33.9032
rfoot -19.9458 1.87318
rtoes 10.2064
lfemur -36.0472 2.73925 -6.62678
ltibia 24.3517
lfoot -5.77829 8.62752
ltoes -18.6846
